<svg width="32" height="32" viewBox="0 0 32 32" fill="none" xmlns="http://www.w3.org/2000/svg">
<path d="M20.7143 20.875H19.5357C18.6027 21.332 17.0313 21.6875 16 21.6875C14.9196 21.6875 13.3482 21.332 12.4152 20.875H11.2857C7.79911 20.875 5 23.8203 5 27.375C5 28.2891 5.6875 29 6.57143 29H25.4286C26.2634 29 27 28.2891 27 27.375C27 23.8203 24.1518 20.875 20.7143 20.875ZM7.35714 14.375C7.75 14.375 8.14286 14.0195 8.14286 13.5625V12.75C8.14286 8.28125 11.6295 4.625 16 4.625C20.3214 4.625 23.8571 8.28125 23.8571 12.75V13.5625C23.808 15.8477 22.0893 17.625 19.9286 17.625H18.3571C18.3571 16.7617 17.6205 16 16.7857 16H15.2143C14.3304 16 13.6429 16.7617 13.6429 17.625C13.6429 18.5391 14.3304 19.25 15.2143 19.25H19.9286C22.9241 19.25 25.3795 16.7109 25.4286 13.5625V12.75C25.4286 7.41797 21.1562 3 16 3C10.7946 3 6.57143 7.41797 6.57143 12.75V13.5625C6.57143 14.0195 6.91518 14.375 7.35714 14.375ZM15.2143 14.375H16.7857C17.7679 14.4258 18.9955 15.1367 19.4866 16H19.9286C21.2054 16 22.2366 14.9336 22.2857 13.5625V12.75C22.2857 9.19531 19.4375 6.25 16 6.25C12.5134 6.25 9.71429 9.19531 9.71429 12.75C9.71429 14.832 10.6473 16.6094 12.0714 17.8281C12.0714 17.7773 12.0714 17.7266 12.0714 17.625C12.0714 15.8477 13.4464 14.4258 15.2143 14.375Z" fill="white"/>
</svg>
